<svg width="24" height="20" viewBox="0 0 24 20" fill="none" xmlns="http://www.w3.org/2000/svg">
<path d="M1.73058 8.62567C1.73058 8.62567 12.0913 4.40142 15.6817 2.96314C17.0609 2.37423 21.734 0.460299 21.734 0.460299C21.734 0.460299 23.8996 -0.366433 23.7173 1.66075C23.6489 2.48748 23.1702 5.40935 22.6915 8.55771C21.9734 13.0198 21.1983 17.9009 21.1983 17.9009C21.1983 17.9009 21.0729 19.2712 20.0585 19.5091C19.0441 19.7469 17.3686 18.6823 17.0609 18.4445C16.7531 18.2067 12.5815 15.5226 11.0199 14.2202C10.8629 14.1129 10.7355 13.9682 10.6493 13.7993C10.5632 13.6304 10.521 13.4428 10.5266 13.2535C10.5323 13.0642 10.5857 12.8794 10.6818 12.7159C10.7779 12.5524 10.9138 12.4155 11.0769 12.3176C13.2311 10.3471 15.8071 7.91219 17.3686 6.36065C18.0867 5.64718 18.8047 3.98239 15.8071 5.99825C11.5556 8.92012 7.36118 11.6608 7.36118 11.6608C6.9284 11.8523 6.46145 11.956 5.98778 11.9657C5.51411 11.9754 5.04325 11.891 4.60287 11.7174C2.81339 11.1851 0.716165 10.4717 0.716165 10.4717C0.716165 10.4717 -0.731378 9.57697 1.73058 8.62567Z" fill="white"/>
</svg>
