<svg width="25" height="23" viewBox="0 0 25 23" fill="none" xmlns="http://www.w3.org/2000/svg">
<path d="M1.01528 13.0975L4.04831 6.60196C4.13724 6.42009 4.33005 6.31297 4.53144 6.33358H7.10817C7.40465 6.33358 7.64499 6.57391 7.64499 6.87039C7.64499 7.16688 7.40465 7.40721 7.10817 7.40721H4.88038L2.38417 12.7754H5.44402C6.83136 12.7686 8.09308 13.5781 8.66494 14.8422C9.07912 15.7116 9.95656 16.2652 10.9196 16.2648H14.0331C14.9962 16.2652 15.8735 15.7116 16.2878 14.8422C16.8596 13.5781 18.1214 12.7686 19.5087 12.7754H22.5149L19.5624 7.40721H17.8445C17.5481 7.40721 17.3077 7.16688 17.3077 6.87039C17.3077 6.57391 17.5481 6.33358 17.8445 6.33358H19.8845C20.0784 6.31518 20.2659 6.40894 20.3676 6.57514L23.9106 13.0707C23.9727 13.1257 24.0112 13.2026 24.0179 13.2854V19.9688C23.9752 21.4732 22.758 22.6785 21.2533 22.7066H3.69937C2.19464 22.6785 0.977514 21.4732 0.934771 19.9688V13.2854C0.944994 13.2169 0.972736 13.1521 1.01528 13.0975ZM2.00841 19.9688C2.05013 20.8803 2.78726 21.6058 3.69937 21.6329H21.2533C22.1655 21.6058 22.9026 20.8804 22.9443 19.9688V13.849H19.5087C18.5457 13.8486 17.6683 14.4022 17.254 15.2716C16.6822 16.5357 15.4205 17.3452 14.0331 17.3384H10.9196C9.53225 17.3452 8.27053 16.5357 7.69867 15.2716C7.28449 14.4022 6.40705 13.8486 5.44402 13.849H2.00841V19.9688Z" fill="white"/>
<path d="M12.8521 13.1778C12.6617 13.3854 12.3391 13.3993 12.1316 13.2088C12.1208 13.199 12.1105 13.1886 12.1006 13.1778L8.45025 9.50061C8.27238 9.26341 8.32042 8.92696 8.55762 8.74904C8.74848 8.60591 9.01095 8.60591 9.20181 8.74904L11.9396 11.4868V1.28731C11.9396 0.990822 12.1799 0.750488 12.4764 0.750488C12.7729 0.750488 13.0132 0.990822 13.0132 1.28731V11.4869L15.751 8.74909C15.9882 8.57123 16.3247 8.61927 16.5026 8.85647C16.6457 9.04733 16.6457 9.3098 16.5026 9.50066L12.8521 13.1778Z" fill="white"/>
</svg>
