<svg width="31" height="23" viewBox="0 0 31 23" fill="none" xmlns="http://www.w3.org/2000/svg">
<path d="M27.4194 0H2.64213C1.18708 0 0 1.18579 0 2.64213V20.2563C0 21.7077 1.18179 22.8984 2.64213 22.8984H27.4194C28.8708 22.8984 30.0615 21.7166 30.0615 20.2563V2.64213C30.0615 1.19072 28.8797 0 27.4194 0ZM27.0546 1.76142L15.0868 13.7293L3.01549 1.76142H27.0546ZM1.76142 19.8916V2.99846L10.2444 11.4086L1.76142 19.8916ZM3.00692 21.137L11.4952 12.6487L14.4695 15.5975C14.8138 15.9388 15.3694 15.9377 15.7123 15.5948L18.6123 12.6947L27.0546 21.137H3.00692ZM28.3001 19.8915L19.8578 11.4492L28.3001 3.00686V19.8915Z" fill="white"/>
</svg>
