<svg width="31" height="30" viewBox="0 0 31 30" fill="none" xmlns="http://www.w3.org/2000/svg">
<path d="M22.1058 29.7491C21.146 29.7491 20.1943 29.5794 19.2637 29.2414C15.164 27.7521 11.3586 25.3264 8.25878 22.2267C5.15894 19.1269 2.73331 15.3215 1.24408 11.2218C0.765513 9.90428 0.624284 8.54426 0.824455 7.17936C1.01197 5.90087 1.5072 4.65973 2.25666 3.59006C3.00944 2.51569 4.01302 1.6221 5.15888 1.00591C6.38082 0.348836 7.71454 0.015625 9.12311 0.015625C9.5612 0.015625 9.93982 0.321717 10.0316 0.750047L11.49 7.55589C11.5561 7.86408 11.4613 8.18474 11.2385 8.40762L8.74652 10.8996C11.0974 15.5734 14.9119 19.388 19.5858 21.7388L22.0778 19.2468C22.3006 19.024 22.6213 18.9294 22.9295 18.9953L29.7354 20.4537C30.1638 20.5455 30.4698 20.9242 30.4698 21.3622C30.4698 22.7708 30.1366 24.1046 29.4795 25.3265C28.8633 26.4724 27.9697 27.4759 26.8953 28.2287C25.8257 28.9782 24.5846 29.4734 23.306 29.6609C22.9054 29.7197 22.5048 29.7491 22.1058 29.7491ZM8.38073 1.91454C6.52274 2.11965 4.87364 3.0935 3.77853 4.65647C2.54708 6.41399 2.25991 8.57568 2.99068 10.5874C5.85382 18.4691 12.0164 24.6316 19.8981 27.4948C21.9098 28.2255 24.0716 27.9384 25.8291 26.7069C27.3921 25.6118 28.3659 23.9627 28.571 22.1047L23.0345 20.9183L20.4319 23.5208C20.155 23.7978 19.7342 23.8714 19.3799 23.7048C13.8521 21.1079 9.37758 16.6334 6.78064 11.1056C6.61415 10.7512 6.68766 10.3305 6.96461 10.0536L9.56712 7.45108L8.38073 1.91454Z" fill="white"/>
</svg>
