<svg width="24" height="20" viewBox="0 0 24 20" fill="none" xmlns="http://www.w3.org/2000/svg">
<path d="M1.43719 8.33221C1.43719 8.33221 11.7979 4.10796 15.3883 2.66968C16.7675 2.08078 21.4406 0.166842 21.4406 0.166842C21.4406 0.166842 23.6062 -0.65989 23.4239 1.3673C23.3555 2.19403 22.8768 5.11589 22.3981 8.26426C21.68 12.7263 20.9049 17.6074 20.9049 17.6074C20.9049 17.6074 20.7795 18.9778 19.7651 19.2156C18.7507 19.4534 17.0752 18.3889 16.7675 18.151C16.4597 17.9132 12.2881 15.2292 10.7265 13.9268C10.5695 13.8195 10.4421 13.6747 10.3559 13.5059C10.2698 13.337 10.2276 13.1493 10.2332 12.9601C10.2389 12.7708 10.2923 12.586 10.3884 12.4225C10.4845 12.259 10.6204 12.122 10.7835 12.0242C12.9377 10.0536 15.5137 7.61873 17.0752 6.0672C17.7933 5.35372 18.5114 3.68894 15.5137 5.7048C11.2622 8.62666 7.06779 11.3673 7.06779 11.3673C6.635 11.5589 6.16806 11.6625 5.69438 11.6722C5.22071 11.682 4.74986 11.5976 4.30948 11.424C2.52 10.8917 0.422769 10.1782 0.422769 10.1782C0.422769 10.1782 -1.02477 9.28351 1.43719 8.33221Z" fill="white"/>
</svg>
