<svg width="18" height="18" viewBox="0 0 18 18" fill="none" xmlns="http://www.w3.org/2000/svg">
<path d="M13.563 11.0773C13.4976 10.9851 13.3575 10.9298 13.124 10.8192C12.8905 10.7085 11.7976 10.1739 11.5922 10.1001C11.3867 10.0264 11.2466 9.98953 11.0971 10.2108C10.9477 10.432 10.518 10.9298 10.3872 11.0773C10.2565 11.2247 10.1257 11.2432 9.90154 11.1326C9.24017 10.8684 8.62783 10.4977 8.08951 10.0356C7.60735 9.5856 7.19224 9.07041 6.85657 8.50543C6.83221 8.46986 6.81528 8.42985 6.80678 8.38775C6.79829 8.34564 6.79839 8.30228 6.80709 8.26021C6.81578 8.21815 6.83291 8.17822 6.85744 8.14277C6.88198 8.10731 6.91344 8.07705 6.94998 8.05374C7.05272 7.95235 7.17415 7.79564 7.28623 7.66659C7.37848 7.55492 7.45397 7.43075 7.5104 7.29787C7.5431 7.23845 7.56023 7.17191 7.56023 7.10429C7.56023 7.03667 7.5431 6.97013 7.5104 6.91071C7.45436 6.8001 7.00602 5.71237 6.81921 5.2699C6.6324 4.82743 6.45493 4.90118 6.31483 4.89196H5.88517C5.77157 4.89477 5.6598 4.9208 5.55691 4.9684C5.45402 5.016 5.36225 5.08413 5.28739 5.1685C5.03409 5.40522 4.83352 5.69139 4.69844 6.00879C4.56336 6.3262 4.49673 6.66789 4.50279 7.01211C4.58116 7.84782 4.90588 8.64257 5.43683 9.29818C6.39855 10.7194 7.71827 11.8693 9.26639 12.6351C9.7988 12.8656 10.2004 12.9946 10.546 13.1052C11.0035 13.2393 11.4861 13.2677 11.9564 13.1882C12.2679 13.124 12.5628 12.9977 12.823 12.817C13.0832 12.6363 13.3032 12.405 13.4696 12.1373C13.5953 11.7984 13.6276 11.4325 13.563 11.0773ZM13.563 11.0773C13.4976 10.9851 13.3575 10.9298 13.124 10.8192C12.8905 10.7085 11.7976 10.1739 11.5922 10.1001C11.3867 10.0264 11.2466 9.98953 11.0971 10.2108C10.9477 10.432 10.518 10.9298 10.3872 11.0773C10.2565 11.2247 10.1257 11.2432 9.90154 11.1326C9.24017 10.8684 8.62783 10.4977 8.08951 10.0356C7.60735 9.5856 7.19224 9.07041 6.85657 8.50543C6.83221 8.46986 6.81528 8.42985 6.80678 8.38775C6.79829 8.34564 6.79839 8.30228 6.80709 8.26021C6.81578 8.21815 6.83291 8.17822 6.85744 8.14277C6.88198 8.10731 6.91344 8.07705 6.94998 8.05374C7.05272 7.95235 7.17415 7.79564 7.28623 7.66659C7.37848 7.55492 7.45397 7.43075 7.5104 7.29787C7.5431 7.23845 7.56023 7.17191 7.56023 7.10429C7.56023 7.03667 7.5431 6.97013 7.5104 6.91071C7.45436 6.8001 7.00602 5.71237 6.81921 5.2699C6.6324 4.82743 6.45493 4.90118 6.31483 4.89196H5.88517C5.77157 4.89477 5.6598 4.9208 5.55691 4.9684C5.45402 5.016 5.36225 5.08413 5.28739 5.1685C5.03409 5.40522 4.83352 5.69139 4.69844 6.00879C4.56336 6.3262 4.49673 6.66789 4.50279 7.01211C4.58116 7.84782 4.90588 8.64257 5.43683 9.29818C6.39855 10.7194 7.71827 11.8693 9.26639 12.6351C9.7988 12.8656 10.2004 12.9946 10.546 13.1052C11.0035 13.2393 11.4861 13.2677 11.9564 13.1882C12.2679 13.124 12.5628 12.9977 12.823 12.817C13.0832 12.6363 13.3032 12.405 13.4696 12.1373C13.5953 11.7984 13.6276 11.4325 13.563 11.0773ZM15.4311 2.71651C13.9047 1.14951 11.8473 0.191744 9.65124 0.0258308C7.45518 -0.140082 5.27406 0.497466 3.52377 1.81691C1.77349 3.13635 0.576485 5.04539 0.161009 7.17999C-0.254467 9.3146 0.140646 11.5255 1.27101 13.391L0.000720217 18L4.75498 16.774C6.11958 17.5051 7.65314 17.8739 9.20554 17.8444C10.7579 17.8149 12.276 17.3881 13.611 16.6057C14.9461 15.8233 16.0524 14.7122 16.8217 13.3812C17.591 12.0501 17.9969 10.5448 17.9997 9.01242C18.0099 7.84409 17.7838 6.68548 17.3348 5.60441C16.8857 4.52335 16.2226 3.54156 15.3844 2.71651H15.4311ZM9.04223 16.3223C7.7076 16.3264 6.39689 15.9728 5.25002 15.2991L4.96981 15.1424L2.16769 15.8706L2.92426 13.1605L2.7468 12.884C1.86198 11.5005 1.46845 9.86593 1.62814 8.23752C1.78783 6.60912 2.49167 5.07935 3.62888 3.88899C4.7661 2.69864 6.27212 1.91528 7.9099 1.66223C9.54768 1.40917 11.2242 1.70078 12.6757 2.49115C14.1271 3.28153 15.271 4.5258 15.9274 6.02812C16.5837 7.53043 16.7152 9.2055 16.3012 10.7897C15.8872 12.3738 14.9512 13.7772 13.6404 14.7788C12.3297 15.7804 10.7186 16.3234 9.0609 16.3223H9.04223ZM13.124 10.7915C12.9092 10.6809 11.7976 10.1462 11.5922 10.0725C11.3867 9.99875 11.2466 9.96188 11.0971 10.1831C10.9477 10.4043 10.518 10.9021 10.3872 11.0496C10.2565 11.1971 10.1257 11.2155 9.90154 11.1049C9.24017 10.8408 8.62783 10.4701 8.08951 10.008C7.60735 9.55795 7.19224 9.04276 6.85657 8.47777C6.83221 8.44221 6.81528 8.4022 6.80678 8.36009C6.79829 8.31798 6.79839 8.27463 6.80709 8.23256C6.81578 8.19049 6.83291 8.15056 6.85744 8.11511C6.88198 8.07966 6.91344 8.04939 6.94998 8.02609C7.05272 7.92469 7.17415 7.76799 7.28623 7.63893C7.37848 7.52727 7.45397 7.40309 7.5104 7.27021C7.5431 7.2108 7.56023 7.14425 7.56023 7.07664C7.56023 7.00902 7.5431 6.94247 7.5104 6.88306C7.45436 6.77244 7.00602 5.68471 6.81921 5.24225C6.6324 4.79978 6.45493 4.87353 6.31483 4.86431H5.88517C5.77157 4.86712 5.6598 4.89315 5.55691 4.94074C5.45402 4.98834 5.36225 5.05648 5.28739 5.14085C5.03409 5.37756 4.83352 5.66373 4.69844 5.98114C4.56336 6.29855 4.49673 6.64024 4.50279 6.98445C4.58116 7.82017 4.90588 8.61491 5.43683 9.27052C6.39855 10.6917 7.71827 11.8417 9.26639 12.6075C9.7988 12.8379 10.2004 12.967 10.546 13.0776C11.0035 13.2116 11.4861 13.24 11.9564 13.1605C12.2679 13.0964 12.5628 12.97 12.823 12.7893C13.0832 12.6086 13.3032 12.3773 13.4696 12.1097C13.6062 11.7769 13.6514 11.4144 13.6003 11.0588C13.4976 10.9851 13.3575 10.9298 13.124 10.856V10.7915Z" fill="white"/>
</svg>
