<svg width="26" height="26" viewBox="0 0 26 26" fill="none" xmlns="http://www.w3.org/2000/svg">
<path d="M19.093 15.9043C19.0048 15.78 18.8159 15.7054 18.501 15.5563C18.1862 15.4071 16.7126 14.6862 16.4355 14.5868C16.1584 14.4873 15.9695 14.4376 15.7679 14.7359C15.5664 15.0342 14.9871 15.7054 14.8107 15.9043C14.6344 16.1032 14.4581 16.1281 14.1558 15.9789C13.264 15.6227 12.4383 15.1229 11.7124 14.4997C11.0622 13.8929 10.5025 13.1982 10.0499 12.4364C10.017 12.3884 9.99419 12.3345 9.98273 12.2777C9.97127 12.2209 9.97141 12.1625 9.98314 12.1057C9.99487 12.049 10.018 11.9952 10.051 11.9474C10.0841 11.8996 10.1265 11.8587 10.1758 11.8273C10.3144 11.6906 10.4781 11.4793 10.6292 11.3053C10.7536 11.1547 10.8554 10.9872 10.9315 10.8081C10.9756 10.7279 10.9987 10.6382 10.9987 10.547C10.9987 10.4559 10.9756 10.3661 10.9315 10.286C10.8559 10.1369 10.2514 8.67013 9.99949 8.0735C9.74759 7.47687 9.50829 7.5763 9.31936 7.56387H8.74C8.58682 7.56766 8.4361 7.60276 8.29736 7.66694C8.15862 7.73113 8.03487 7.82301 7.93393 7.93677C7.59238 8.25596 7.32192 8.64184 7.13977 9.06985C6.95763 9.49785 6.86778 9.9586 6.87596 10.4227C6.98163 11.5496 7.41949 12.6213 8.13545 13.5054C9.43226 15.4218 11.2118 16.9724 13.2993 18.005C14.0173 18.3157 14.5588 18.4897 15.0248 18.6389C15.6417 18.8197 16.2924 18.8579 16.9267 18.7508C17.3466 18.6642 17.7443 18.4939 18.0951 18.2502C18.446 18.0065 18.7427 17.6947 18.967 17.3337C19.1366 16.8767 19.1801 16.3834 19.093 15.9043ZM19.093 15.9043C19.0048 15.78 18.8159 15.7054 18.501 15.5563C18.1862 15.4071 16.7126 14.6862 16.4355 14.5868C16.1584 14.4873 15.9695 14.4376 15.7679 14.7359C15.5664 15.0342 14.9871 15.7054 14.8107 15.9043C14.6344 16.1032 14.4581 16.1281 14.1558 15.9789C13.264 15.6227 12.4383 15.1229 11.7124 14.4997C11.0622 13.8929 10.5025 13.1982 10.0499 12.4364C10.017 12.3884 9.99419 12.3345 9.98273 12.2777C9.97127 12.2209 9.97141 12.1625 9.98314 12.1057C9.99487 12.049 10.018 11.9952 10.051 11.9474C10.0841 11.8996 10.1265 11.8587 10.1758 11.8273C10.3144 11.6906 10.4781 11.4793 10.6292 11.3053C10.7536 11.1547 10.8554 10.9872 10.9315 10.8081C10.9756 10.7279 10.9987 10.6382 10.9987 10.547C10.9987 10.4559 10.9756 10.3661 10.9315 10.286C10.8559 10.1369 10.2514 8.67013 9.99949 8.0735C9.74759 7.47687 9.50829 7.5763 9.31936 7.56387H8.74C8.58682 7.56766 8.4361 7.60276 8.29736 7.66694C8.15862 7.73113 8.03487 7.82301 7.93393 7.93677C7.59238 8.25596 7.32192 8.64184 7.13977 9.06985C6.95763 9.49785 6.86778 9.9586 6.87596 10.4227C6.98163 11.5496 7.41949 12.6213 8.13545 13.5054C9.43226 15.4218 11.2118 16.9724 13.2993 18.005C14.0173 18.3157 14.5588 18.4897 15.0248 18.6389C15.6417 18.8197 16.2924 18.8579 16.9267 18.7508C17.3466 18.6642 17.7443 18.4939 18.0951 18.2502C18.446 18.0065 18.7427 17.6947 18.967 17.3337C19.1366 16.8767 19.1801 16.3834 19.093 15.9043ZM21.612 4.63042C19.5537 2.51744 16.7795 1.22596 13.8183 1.00224C10.857 0.778517 7.91595 1.63821 5.55582 3.41738C3.19569 5.19656 1.58161 7.77076 1.02137 10.6491C0.461129 13.5275 0.993912 16.5087 2.51813 19.0242L0.805231 25.2391L7.21602 23.586C9.05608 24.5718 11.124 25.0691 13.2173 25.0293C15.3106 24.9895 17.3576 24.414 19.1578 23.359C20.958 22.3041 22.4498 20.8058 23.4872 19.011C24.5245 17.2162 25.0718 15.1863 25.0756 13.12C25.0893 11.5446 24.7845 9.9823 24.179 8.52457C23.5734 7.06683 22.6793 5.74295 21.549 4.63042H21.612ZM12.9971 22.9769C11.1974 22.9825 9.43002 22.5056 7.88355 21.5972L7.5057 21.3859L3.72724 22.3678L4.74742 18.7135L4.50812 18.3406C3.31501 16.475 2.78436 14.2709 2.99969 12.0751C3.21502 9.87934 4.1641 7.81655 5.69755 6.21144C7.23101 4.60633 9.26177 3.55003 11.4702 3.2088C13.6786 2.86757 15.9394 3.26078 17.8965 4.32655C19.8537 5.39232 21.3962 7.07013 22.2812 9.0959C23.1663 11.1217 23.3436 13.3804 22.7853 15.5165C22.227 17.6527 20.9648 19.5449 19.1974 20.8955C17.4299 22.2461 15.2576 22.9783 13.0223 22.9769H12.9971ZM18.501 15.519C18.2113 15.3698 16.7126 14.6489 16.4355 14.5495C16.1584 14.45 15.9695 14.4003 15.7679 14.6986C15.5664 14.9969 14.9871 15.6681 14.8107 15.867C14.6344 16.0659 14.4581 16.0908 14.1558 15.9416C13.264 15.5854 12.4383 15.0856 11.7124 14.4625C11.0622 13.8556 10.5025 13.1609 10.0499 12.3991C10.017 12.3511 9.99419 12.2972 9.98273 12.2404C9.97127 12.1836 9.97141 12.1252 9.98314 12.0684C9.99487 12.0117 10.018 11.9579 10.051 11.9101C10.0841 11.8623 10.1265 11.8215 10.1758 11.79C10.3144 11.6533 10.4781 11.442 10.6292 11.268C10.7536 11.1174 10.8554 10.95 10.9315 10.7708C10.9756 10.6907 10.9987 10.6009 10.9987 10.5098C10.9987 10.4186 10.9756 10.3288 10.9315 10.2487C10.8559 10.0996 10.2514 8.63284 9.99949 8.03621C9.74759 7.43958 9.50829 7.53902 9.31936 7.52659H8.74C8.58682 7.53038 8.4361 7.56547 8.29736 7.62965C8.15862 7.69384 8.03487 7.78571 7.93393 7.89948C7.59238 8.21867 7.32192 8.60455 7.13977 9.03256C6.95763 9.46056 6.86778 9.9213 6.87596 10.3855C6.98163 11.5124 7.41949 12.584 8.13545 13.4681C9.43226 15.3845 11.2118 16.9351 13.2993 17.9677C14.0173 18.2784 14.5588 18.4524 15.0248 18.6016C15.6417 18.7824 16.2924 18.8207 16.9267 18.7135C17.3466 18.6269 17.7443 18.4566 18.0951 18.2129C18.446 17.9692 18.7427 17.6574 18.967 17.2965C19.1513 16.8477 19.2122 16.3589 19.1434 15.8795C19.0048 15.78 18.8159 15.7054 18.501 15.606V15.519Z" fill="white"/>
</svg>
