<svg width="19" height="20" viewBox="0 0 19 20" fill="none" xmlns="http://www.w3.org/2000/svg">
<path d="M0.745304 11.222L3.15229 5.31825C3.22287 5.15295 3.37588 5.05559 3.5357 5.07431H5.58056C5.81585 5.07431 6.00658 5.29275 6.00658 5.56222C6.00658 5.8317 5.81585 6.05014 5.58056 6.05014H3.81262L1.83164 10.9293H4.25991C5.36089 10.923 6.36218 11.6589 6.816 12.8077C7.1447 13.5979 7.84102 14.1011 8.60527 14.1007H11.0761C11.8404 14.1011 12.5367 13.5979 12.8654 12.8077C13.3192 11.6589 14.3205 10.923 15.4215 10.9293H17.8072L15.4641 6.05014H14.1009C13.8656 6.05014 13.6748 5.8317 13.6748 5.56222C13.6748 5.29275 13.8656 5.07431 14.1009 5.07431H15.7197C15.8737 5.0576 16.0224 5.14281 16.1031 5.29387L18.9148 11.1976C18.9641 11.2477 18.9946 11.3176 19 11.3928V17.4673C18.9661 18.8346 18.0001 19.9302 16.806 19.9557H2.87538C1.68124 19.9302 0.715338 18.8346 0.681417 17.4673V11.3928C0.689531 11.3305 0.711546 11.2717 0.745304 11.222ZM1.53345 17.4673C1.56655 18.2958 2.15153 18.9551 2.87538 18.9798H16.806C17.5299 18.9551 18.1149 18.2958 18.148 17.4673V11.9051H15.4215C14.6573 11.9047 13.961 12.4078 13.6322 13.1981C13.1784 14.3469 12.1771 15.0827 11.0761 15.0765H8.60527C7.50429 15.0827 6.503 14.3469 6.04918 13.1981C5.72049 12.4078 5.02416 11.9047 4.25991 11.9051H1.53345V17.4673Z" fill="black"/>
<path d="M10.1389 11.2952C9.98783 11.4838 9.73179 11.4964 9.56712 11.3233C9.55856 11.3143 9.55036 11.3049 9.54254 11.2952L6.64565 7.95294C6.5045 7.73735 6.54262 7.43155 6.73086 7.26984C6.88232 7.13975 7.09062 7.13975 7.24208 7.26984L9.41476 9.7582V0.487912C9.41476 0.218438 9.60549 0 9.84077 0C10.0761 0 10.2668 0.218438 10.2668 0.487912V9.75825L12.4395 7.26989C12.6277 7.10823 12.8947 7.15189 13.0359 7.36748C13.1495 7.54095 13.1495 7.77952 13.0359 7.95299L10.1389 11.2952Z" fill="black"/>
</svg>
