<svg width="23" height="23" viewBox="0 0 23 23" fill="none" xmlns="http://www.w3.org/2000/svg">
<path d="M12.7392 21.3871C12.1835 21.2239 11.6613 20.9638 11.18 20.6097C9.05967 19.0501 7.26895 16.9985 6.00142 14.6765C4.73388 12.3546 3.97673 9.73868 3.81178 7.11171C3.75879 6.26749 3.90834 5.45603 4.25639 4.69982C4.58241 3.99148 5.08025 3.3571 5.69612 2.86525C6.3147 2.37125 7.04776 2.02456 7.816 1.86269C8.63524 1.69009 9.46413 1.72401 10.2797 1.9636C10.5333 2.03811 10.7005 2.27973 10.6808 2.54335L10.3676 6.7319C10.3534 6.92157 10.244 7.09112 10.0771 7.18227L8.21041 8.20121C8.77655 11.3072 10.3363 14.1646 12.6426 16.3207L14.5093 15.3017C14.6762 15.2106 14.878 15.2103 15.0452 15.3009L18.7377 17.3029C18.9701 17.4289 19.0829 17.7002 19.0084 17.9538C18.7688 18.7694 18.349 19.4849 17.7607 20.0807C17.209 20.6393 16.521 21.0684 15.7709 21.3215C15.0241 21.5735 14.2213 21.6491 13.4491 21.5402C13.2071 21.5061 12.9702 21.455 12.7392 21.3871Z" fill="white"/>
</svg>
