<svg width="19" height="16" viewBox="0 0 19 16" fill="none" xmlns="http://www.w3.org/2000/svg">
<path d="M1.16522 6.92547C1.16522 6.92547 9.56531 3.41441 12.4762 2.21895C13.5944 1.72948 17.3832 0.138674 17.3832 0.138674C17.3832 0.138674 19.139 -0.54848 18.9912 1.13645C18.9357 1.82361 18.5476 4.25217 18.1595 6.86899C17.5773 10.5777 16.9489 14.6347 16.9489 14.6347C16.9489 14.6347 16.8472 15.7737 16.0248 15.9714C15.2023 16.1691 13.8439 15.2842 13.5944 15.0866C13.3449 14.8889 9.96267 12.658 8.69665 11.5755C8.56936 11.4863 8.46605 11.366 8.39619 11.2257C8.32632 11.0853 8.29212 10.9293 8.29671 10.772C8.30131 10.6147 8.34456 10.4611 8.4225 10.3252C8.50044 10.1893 8.61058 10.0755 8.74286 9.99412C10.4894 8.35625 12.5779 6.33245 13.8439 5.04287C14.4261 4.44984 15.0083 3.06613 12.5779 4.74165C9.13098 7.17021 5.73028 9.44817 5.73028 9.44817C5.3794 9.60736 5.00082 9.69352 4.61678 9.7016C4.23275 9.70969 3.851 9.63952 3.49396 9.49523C2.04311 9.05282 0.342765 8.4598 0.342765 8.4598C0.342765 8.4598 -0.830847 7.71617 1.16522 6.92547Z" fill="white"/>
</svg>
