<svg width="26" height="26" viewBox="0 0 26 26" fill="none" xmlns="http://www.w3.org/2000/svg">
<path d="M18.6862 26C17.8469 26 17.0147 25.8516 16.201 25.556C12.6161 24.2537 9.2885 22.1327 6.57789 19.4221C3.86729 16.7116 1.74623 13.384 0.443993 9.79906C0.0255199 8.64698 -0.0979757 7.45773 0.0770609 6.26422C0.241028 5.14627 0.674074 4.06096 1.32943 3.12561C1.98769 2.18614 2.86526 1.40475 3.86724 0.865937C4.93574 0.291371 6.10199 0 7.33369 0C7.71677 0 8.04785 0.267657 8.12814 0.642204L9.40341 6.59347C9.46115 6.86296 9.37833 7.14336 9.18348 7.33825L7.00439 9.51729C9.06004 13.6043 12.3956 16.9399 16.4827 18.9955L18.6617 16.8164C18.8566 16.6216 19.137 16.5389 19.4065 16.5965L25.3578 17.8718C25.7324 17.9521 26 18.2831 26 18.6662C26 19.8979 25.7086 21.0642 25.134 22.1327C24.5952 23.1347 23.8138 24.0122 22.8743 24.6705C21.939 25.3259 20.8537 25.7589 19.7357 25.9229C19.3854 25.9743 19.0351 25.9999 18.6862 26ZM6.68453 1.66048C5.05984 1.83983 3.61781 2.6914 2.66021 4.05812C1.58338 5.59495 1.33228 7.4852 1.97129 9.2443C4.47491 16.1363 9.86368 21.5251 16.7558 24.0287C18.5148 24.6677 20.4051 24.4167 21.942 23.3398C23.3087 22.3822 24.1603 20.9402 24.3396 19.3155L19.4983 18.2781L17.2225 20.5538C16.9804 20.7959 16.6124 20.8603 16.3026 20.7147C11.4689 18.4438 7.55621 14.5312 5.28535 9.6975C5.13977 9.3876 5.20405 9.01965 5.44622 8.77753L7.72195 6.50182L6.68453 1.66048Z" fill="white"/>
</svg>
