<svg width="25" height="25" viewBox="0 0 25 25" fill="none" xmlns="http://www.w3.org/2000/svg">
<path d="M18.2887 14.9369C18.2006 14.8126 18.0116 14.738 17.6968 14.5889C17.3819 14.4397 15.9083 13.7188 15.6312 13.6193C15.3541 13.5199 15.1652 13.4702 14.9637 13.7685C14.7622 14.0668 14.1828 14.738 14.0065 14.9369C13.8301 15.1358 13.6538 15.1606 13.3515 15.0115C12.4597 14.6553 11.634 14.1555 10.9081 13.5323C10.258 12.9255 9.69823 12.2308 9.24561 11.469C9.21275 11.421 9.18993 11.3671 9.17847 11.3103C9.16701 11.2535 9.16715 11.195 9.17888 11.1383C9.19061 11.0816 9.2137 11.0278 9.24678 10.9799C9.27987 10.9321 9.32228 10.8913 9.37156 10.8599C9.5101 10.7232 9.67383 10.5119 9.82497 10.3379C9.94936 10.1873 10.0512 10.0198 10.1272 9.84066C10.1713 9.76054 10.1944 9.67081 10.1944 9.57964C10.1944 9.48846 10.1713 9.39873 10.1272 9.31861C10.0517 9.16945 9.44713 7.70272 9.19523 7.10609C8.94333 6.50946 8.70403 6.6089 8.5151 6.59647H7.93574C7.78256 6.60026 7.63184 6.63535 7.4931 6.69954C7.35436 6.76372 7.23061 6.8556 7.12967 6.96937C6.78812 7.28856 6.51766 7.67444 6.33551 8.10244C6.15337 8.53044 6.06352 8.99119 6.0717 9.45534C6.17737 10.5822 6.61523 11.6539 7.33119 12.5379C8.628 14.4544 10.4075 16.005 12.4951 17.0376C13.213 17.3483 13.7546 17.5223 14.2206 17.6715C14.8374 17.8523 15.4882 17.8905 16.1224 17.7833C16.5424 17.6968 16.94 17.5265 17.2909 17.2828C17.6417 17.0391 17.9384 16.7273 18.1628 16.3663C18.3323 15.9093 18.3758 15.416 18.2887 14.9369ZM18.2887 14.9369C18.2006 14.8126 18.0116 14.738 17.6968 14.5889C17.3819 14.4397 15.9083 13.7188 15.6312 13.6193C15.3541 13.5199 15.1652 13.4702 14.9637 13.7685C14.7622 14.0668 14.1828 14.738 14.0065 14.9369C13.8301 15.1358 13.6538 15.1606 13.3515 15.0115C12.4597 14.6553 11.634 14.1555 10.9081 13.5323C10.258 12.9255 9.69823 12.2308 9.24561 11.469C9.21275 11.421 9.18993 11.3671 9.17847 11.3103C9.16701 11.2535 9.16715 11.195 9.17888 11.1383C9.19061 11.0816 9.2137 11.0278 9.24678 10.9799C9.27987 10.9321 9.32228 10.8913 9.37156 10.8599C9.5101 10.7232 9.67383 10.5119 9.82497 10.3379C9.94936 10.1873 10.0512 10.0198 10.1272 9.84066C10.1713 9.76054 10.1944 9.67081 10.1944 9.57964C10.1944 9.48846 10.1713 9.39873 10.1272 9.31861C10.0517 9.16945 9.44713 7.70272 9.19523 7.10609C8.94333 6.50946 8.70403 6.6089 8.5151 6.59647H7.93574C7.78256 6.60026 7.63184 6.63535 7.4931 6.69954C7.35436 6.76372 7.23061 6.8556 7.12967 6.96937C6.78812 7.28856 6.51766 7.67444 6.33551 8.10244C6.15337 8.53044 6.06352 8.99119 6.0717 9.45534C6.17737 10.5822 6.61523 11.6539 7.33119 12.5379C8.628 14.4544 10.4075 16.005 12.4951 17.0376C13.213 17.3483 13.7546 17.5223 14.2206 17.6715C14.8374 17.8523 15.4882 17.8905 16.1224 17.7833C16.5424 17.6968 16.94 17.5265 17.2909 17.2828C17.6417 17.0391 17.9384 16.7273 18.1628 16.3663C18.3323 15.9093 18.3758 15.416 18.2887 14.9369ZM20.8077 3.66302C18.7495 1.55003 15.9753 0.258553 13.014 0.0348311C10.0528 -0.188891 7.11169 0.670799 4.75156 2.44997C2.39143 4.22915 0.77735 6.80335 0.217109 9.68172C-0.343132 12.5601 0.189651 15.5413 1.71387 18.0568L0.000971162 24.2717L6.41176 22.6186C8.25182 23.6043 10.3197 24.1017 12.413 24.0619C14.5063 24.0221 16.5533 23.4466 18.3535 22.3916C20.1538 21.3367 21.6456 19.8384 22.6829 18.0436C23.7203 16.2488 24.2676 14.2189 24.2713 12.1526C24.2851 10.5772 23.9803 9.0149 23.3747 7.55716C22.7692 6.09943 21.8751 4.77555 20.7447 3.66302H20.8077ZM12.1928 22.0095C10.3932 22.015 8.62576 21.5382 7.07929 20.6298L6.70144 20.4185L2.92298 21.4004L3.94316 17.7461L3.70386 17.3732C2.51075 15.5076 1.9801 13.3035 2.19543 11.1077C2.41076 8.91193 3.35984 6.84915 4.89329 5.24403C6.42675 3.63892 8.45751 2.58262 10.6659 2.24139C12.8744 1.90017 15.1351 2.29338 17.0923 3.35915C19.0494 4.42491 20.5919 6.10272 21.477 8.12849C22.362 10.1543 22.5393 12.413 21.9811 14.5491C21.4228 16.6853 20.1606 18.5775 18.3931 19.9281C16.6257 21.2787 14.4533 22.0109 12.218 22.0095H12.1928ZM17.6968 14.5516C17.4071 14.4024 15.9083 13.6815 15.6312 13.5821C15.3541 13.4826 15.1652 13.4329 14.9637 13.7312C14.7622 14.0295 14.1828 14.7007 14.0065 14.8996C13.8301 15.0985 13.6538 15.1234 13.3515 14.9742C12.4597 14.618 11.634 14.1182 10.9081 13.495C10.258 12.8882 9.69823 12.1935 9.24561 11.4317C9.21275 11.3837 9.18993 11.3298 9.17847 11.273C9.16701 11.2162 9.16715 11.1578 9.17888 11.101C9.19061 11.0443 9.2137 10.9905 9.24678 10.9427C9.27987 10.8949 9.32228 10.854 9.37156 10.8226C9.5101 10.6859 9.67383 10.4746 9.82497 10.3006C9.94936 10.15 10.0512 9.98255 10.1272 9.80338C10.1713 9.72325 10.1944 9.63352 10.1944 9.54235C10.1944 9.45117 10.1713 9.36144 10.1272 9.28132C10.0517 9.13216 9.44713 7.66544 9.19523 7.0688C8.94333 6.47217 8.70403 6.57161 8.5151 6.55918H7.93574C7.78256 6.56297 7.63184 6.59806 7.4931 6.66225C7.35436 6.72643 7.23061 6.81831 7.12967 6.93207C6.78812 7.25126 6.51766 7.63715 6.33551 8.06515C6.15337 8.49315 6.06352 8.9539 6.0717 9.41805C6.17737 10.5449 6.61523 11.6166 7.33119 12.5007C8.628 14.4171 10.4075 15.9677 12.4951 17.0003C13.213 17.311 13.7546 17.485 14.2206 17.6342C14.8374 17.815 15.4882 17.8532 16.1224 17.7461C16.5424 17.6595 16.94 17.4892 17.2909 17.2455C17.6417 17.0018 17.9384 16.69 18.1628 16.3291C18.3471 15.8803 18.4079 15.3915 18.3391 14.9121C18.2006 14.8126 18.0116 14.738 17.6968 14.6386V14.5516Z" fill="white"/>
</svg>
